<svg width="1024" height="374" viewBox="0 0 1024 374" fill="none" xmlns="http://www.w3.org/2000/svg">
<rect width="1024" height="373.333" fill="none"/>
<path d="M360.576 246.198L360.576 246.198Q348.817 246.198 339.829 241.197Q330.841 236.196 325.772 227.343Q320.704 218.490 320.704 207.137L320.704 207.137L320.704 149.289L342.059 149.289L342.059 208.353Q342.059 214.030 344.492 218.220Q346.925 222.410 351.182 224.640Q355.440 226.870 360.576 226.870L360.576 226.870Q365.982 226.870 370.037 224.640Q374.092 222.410 376.457 218.287Q378.822 214.165 378.822 208.488L378.822 208.488L378.822 149.289L400.177 149.289L400.177 207.272Q400.177 218.625 395.176 227.411Q390.175 236.196 381.255 241.197Q372.335 246.198 360.576 246.198ZM453.024 246.063L453.024 246.063Q446.401 246.063 440.860 243.495L440.860 243.495Q437.886 242.143 435.589 240.251L435.589 240.251L435.589 272.418L415.180 272.418L415.180 179.024L435.859 179.024L435.859 183.619Q438.157 181.727 440.860 180.376L440.860 180.376Q446.401 177.672 453.024 177.672L453.024 177.672Q462.350 177.672 469.581 182.133Q476.812 186.593 480.934 194.297Q485.057 202.001 485.057 211.867Q485.057 221.734 480.934 229.438Q476.812 237.142 469.581 241.602Q462.350 246.063 453.024 246.063ZM449.240 227.411L449.240 227.411Q453.700 227.411 457.011 225.383Q460.323 223.356 462.215 219.842Q464.107 216.328 464.107 211.867L464.107 211.867Q464.107 207.272 462.215 203.758Q460.323 200.244 457.011 198.284Q453.700 196.324 449.375 196.324Q445.050 196.324 441.738 198.284Q438.427 200.244 436.535 203.758Q434.643 207.272 434.643 211.867L434.643 211.867Q434.643 216.328 436.467 219.842Q438.292 223.356 441.671 225.383Q445.050 227.411 449.240 227.411ZM526.145 246.198L526.145 246.198Q514.386 246.198 505.939 242.346Q497.491 238.494 490.463 230.654L490.463 230.654L504.249 217.003Q508.845 222.275 514.454 225.181Q520.063 228.086 527.496 228.086L527.496 228.086Q534.254 228.086 537.971 225.654Q541.688 223.221 541.688 218.896L541.688 218.896Q541.688 214.976 539.255 212.543Q536.822 210.110 532.835 208.353Q528.848 206.596 524.050 204.974Q519.252 203.352 514.521 201.257Q509.791 199.163 505.804 195.986Q501.816 192.810 499.383 188.012Q496.951 183.214 496.951 175.915L496.951 175.915Q496.951 167.130 501.208 160.778Q505.466 154.425 513.034 151.114Q520.603 147.802 530.470 147.802L530.470 147.802Q540.472 147.802 548.784 151.316Q557.096 154.831 562.502 160.913L562.502 160.913L548.716 174.564Q544.391 170.103 539.999 167.941Q535.606 165.778 530.064 165.778L530.064 165.778Q524.523 165.778 521.279 167.873Q518.035 169.968 518.035 173.888L518.035 173.888Q518.035 177.537 520.468 179.767Q522.901 181.997 526.888 183.619Q530.875 185.241 535.674 186.863Q540.472 188.485 545.202 190.648Q549.933 192.810 553.920 196.121Q557.907 199.433 560.340 204.501Q562.773 209.570 562.773 217.003L562.773 217.003Q562.773 230.654 553.041 238.426Q543.310 246.198 526.145 246.198ZM612.241 246.063L612.241 246.063Q605.618 246.063 600.077 243.495L600.077 243.495Q597.103 242.143 594.805 240.251L594.805 240.251L594.805 272.418L574.396 272.418L574.396 179.024L595.076 179.024L595.076 183.619Q597.373 181.727 600.077 180.376L600.077 180.376Q605.618 177.672 612.241 177.672L612.241 177.672Q621.567 177.672 628.798 182.133Q636.029 186.593 640.151 194.297Q644.273 202.001 644.273 211.867Q644.273 221.734 640.151 229.438Q636.029 237.142 628.798 241.602Q621.567 246.063 612.241 246.063ZM608.456 227.411L608.456 227.411Q612.917 227.411 616.228 225.383Q619.539 223.356 621.432 219.842Q623.324 216.328 623.324 211.867L623.324 211.867Q623.324 207.272 621.432 203.758Q619.539 200.244 616.228 198.284Q612.917 196.324 608.592 196.324Q604.266 196.324 600.955 198.284Q597.644 200.244 595.751 203.758Q593.859 207.272 593.859 211.867L593.859 211.867Q593.859 216.328 595.684 219.842Q597.509 223.356 600.887 225.383Q604.266 227.411 608.456 227.411ZM687.254 246.198L687.254 246.198Q676.576 246.198 668.264 241.805Q659.952 237.412 655.221 229.573Q650.491 221.734 650.491 211.867Q650.491 202.001 655.154 194.229Q659.817 186.458 667.791 181.997Q675.765 177.537 685.767 177.537L685.767 177.537Q695.498 177.537 702.932 181.727Q710.366 185.917 714.623 193.351Q718.881 200.784 718.881 210.381L718.881 210.381Q718.881 212.138 718.678 214.098Q718.475 216.057 717.935 218.625L717.935 218.625L670.900 218.761Q671.305 220.247 672.116 221.599L672.116 221.599Q674.143 225.789 677.995 228.019Q681.847 230.249 687.119 230.249L687.119 230.249Q691.984 230.249 695.904 228.559Q699.823 226.870 702.797 223.491L702.797 223.491L714.150 234.844Q709.285 240.521 702.391 243.359Q695.498 246.198 687.254 246.198ZM670.900 204.569L670.900 204.569L699.553 204.434Q699.148 202.541 698.472 200.920L698.472 200.920Q696.850 197.270 693.674 195.311Q690.498 193.351 685.902 193.351L685.902 193.351Q681.036 193.351 677.455 195.581Q673.873 197.811 671.981 201.866L671.981 201.866Q671.305 203.082 670.900 204.569ZM761.321 246.198L761.321 246.198Q750.643 246.198 742.331 241.805Q734.019 237.412 729.288 229.573Q724.557 221.734 724.557 211.867Q724.557 202.001 729.220 194.229Q733.883 186.458 741.858 181.997Q749.832 177.537 759.834 177.537L759.834 177.537Q769.565 177.537 776.999 181.727Q784.433 185.917 788.690 193.351Q792.948 200.784 792.948 210.381L792.948 210.381Q792.948 212.138 792.745 214.098Q792.542 216.057 792.002 218.625L792.002 218.625L744.966 218.761Q745.372 220.247 746.183 221.599L746.183 221.599Q748.210 225.789 752.062 228.019Q755.914 230.249 761.185 230.249L761.185 230.249Q766.051 230.249 769.971 228.559Q773.890 226.870 776.864 223.491L776.864 223.491L788.217 234.844Q783.351 240.521 776.458 243.359Q769.565 246.198 761.321 246.198ZM744.966 204.569L744.966 204.569L773.620 204.434Q773.214 202.541 772.539 200.920L772.539 200.920Q770.917 197.270 767.741 195.311Q764.564 193.351 759.969 193.351L759.969 193.351Q755.103 193.351 751.522 195.581Q747.940 197.811 746.048 201.866L746.048 201.866Q745.372 203.082 744.966 204.569ZM834.712 246.198L834.712 246.198Q824.575 246.198 816.330 241.737Q808.085 237.277 803.355 229.438Q798.624 221.599 798.624 211.867L798.624 211.867Q798.624 202.001 803.422 194.229Q808.221 186.458 816.465 181.997Q824.710 177.537 834.982 177.537L834.982 177.537Q842.686 177.537 849.106 180.173Q855.526 182.808 860.527 188.080L860.527 188.080L847.281 201.325Q844.984 198.757 841.943 197.541Q838.901 196.324 834.982 196.324L834.982 196.324Q830.522 196.324 827.075 198.284Q823.629 200.244 821.669 203.690Q819.709 207.137 819.709 211.732L819.709 211.732Q819.709 216.328 821.669 219.842Q823.629 223.356 827.143 225.383Q830.657 227.411 834.982 227.411L834.982 227.411Q839.037 227.411 842.213 225.991Q845.389 224.572 847.687 222.004L847.687 222.004L860.797 235.250Q855.661 240.656 849.174 243.427Q842.686 246.198 834.712 246.198ZM934.053 244.711L913.374 244.711L913.374 207.272Q913.374 202.136 910.198 198.960Q907.021 195.784 902.156 195.784L902.156 195.784Q898.777 195.784 896.209 197.203Q893.641 198.622 892.154 201.257Q890.667 203.893 890.667 207.272L890.667 207.272L890.667 244.711L869.988 244.711L869.988 146.586L890.667 146.586L890.667 183.890Q892.559 182.133 894.992 180.781L894.992 180.781Q900.804 177.672 908.373 177.672L908.373 177.672Q916.077 177.672 921.889 180.849Q927.701 184.025 930.877 189.634Q934.053 195.243 934.053 202.677L934.053 202.677L934.053 244.711Z" fill="#FDFDFD"/>
<path d="M106.667 158C106.667 132.816 127.082 112.4 152.266 112.4H153.466C177.988 112.4 197.867 132.279 197.867 156.8C197.867 181.321 177.988 201.2 153.466 201.2H106.667V158Z" fill="#FDFDFD"/>
<path d="M106.667 210.8H185.866C199.121 210.8 209.867 221.545 209.867 234.8V258.8C209.867 272.055 199.121 282.8 185.867 282.8H130.667C117.412 282.8 106.667 272.055 106.667 258.8V210.8Z" fill="#FDFDFD"/>
<circle cx="238.066" cy="122.6" r="33" fill="#958AF0"/>
</svg>
