<svg width="1024" height="374" viewBox="0 0 1024 374" fill="none" xmlns="http://www.w3.org/2000/svg">
<rect width="1024" height="374" fill="none"/>
<path d="M297.691 244.424L297.691 244.424Q283.967 244.424 273.476 238.587Q262.985 232.750 257.069 222.417Q251.153 212.084 251.153 198.832L251.153 198.832L251.153 131.311L276.079 131.311L276.079 200.252Q276.079 206.878 278.918 211.768Q281.758 216.659 286.727 219.262Q291.697 221.865 297.691 221.865L297.691 221.865Q304.002 221.865 308.735 219.262Q313.467 216.659 316.228 211.847Q318.989 207.035 318.989 200.409L318.989 200.409L318.989 131.311L343.915 131.311L343.915 198.990Q343.915 212.241 338.078 222.496Q332.240 232.750 321.828 238.587Q311.416 244.424 297.691 244.424ZM405.598 244.266L405.598 244.266Q397.868 244.266 391.400 241.269L391.400 241.269Q387.929 239.691 385.247 237.483L385.247 237.483L385.247 275.029L361.426 275.029L361.426 166.018L385.563 166.018L385.563 171.382Q388.245 169.173 391.400 167.596L391.400 167.596Q397.868 164.441 405.598 164.441L405.598 164.441Q416.483 164.441 424.923 169.647Q433.363 174.853 438.175 183.845Q442.987 192.837 442.987 204.353Q442.987 215.870 438.175 224.862Q433.363 233.854 424.923 239.060Q416.483 244.266 405.598 244.266ZM401.181 222.496L401.181 222.496Q406.387 222.496 410.252 220.129Q414.117 217.763 416.325 213.661Q418.534 209.559 418.534 204.353L418.534 204.353Q418.534 198.990 416.325 194.888Q414.117 190.786 410.252 188.499Q406.387 186.211 401.338 186.211Q396.290 186.211 392.425 188.499Q388.560 190.786 386.351 194.888Q384.143 198.990 384.143 204.353L384.143 204.353Q384.143 209.559 386.273 213.661Q388.402 217.763 392.346 220.129Q396.290 222.496 401.181 222.496ZM490.945 244.424L490.945 244.424Q477.220 244.424 467.360 239.928Q457.500 235.432 449.297 226.282L449.297 226.282L465.388 210.348Q470.752 216.501 477.299 219.893Q483.846 223.284 492.523 223.284L492.523 223.284Q500.410 223.284 504.749 220.445Q509.087 217.605 509.087 212.557L509.087 212.557Q509.087 207.982 506.248 205.142Q503.408 202.303 498.754 200.252Q494.100 198.201 488.500 196.308Q482.899 194.415 477.378 191.969Q471.856 189.524 467.202 185.817Q462.549 182.110 459.709 176.509Q456.869 170.909 456.869 162.390L456.869 162.390Q456.869 152.135 461.839 144.721Q466.808 137.306 475.642 133.441Q484.477 129.576 495.993 129.576L495.993 129.576Q507.667 129.576 517.369 133.678Q527.072 137.780 533.382 144.879L533.382 144.879L517.291 160.812Q512.242 155.606 507.115 153.082Q501.988 150.558 495.520 150.558L495.520 150.558Q489.052 150.558 485.266 153.003Q481.480 155.448 481.480 160.023L481.480 160.023Q481.480 164.283 484.319 166.886Q487.159 169.489 491.813 171.382Q496.467 173.275 502.067 175.168Q507.667 177.061 513.189 179.585Q518.710 182.110 523.364 185.975Q528.018 189.840 530.858 195.756Q533.697 201.671 533.697 210.348L533.697 210.348Q533.697 226.282 522.339 235.353Q510.980 244.424 490.945 244.424ZM591.437 244.266L591.437 244.266Q583.707 244.266 577.239 241.269L577.239 241.269Q573.768 239.691 571.086 237.483L571.086 237.483L571.086 275.029L547.265 275.029L547.265 166.018L571.402 166.018L571.402 171.382Q574.083 169.173 577.239 167.596L577.239 167.596Q583.707 164.441 591.437 164.441L591.437 164.441Q602.322 164.441 610.762 169.647Q619.202 174.853 624.014 183.845Q628.826 192.837 628.826 204.353Q628.826 215.870 624.014 224.862Q619.202 233.854 610.762 239.060Q602.322 244.266 591.437 244.266ZM587.020 222.496L587.020 222.496Q592.226 222.496 596.091 220.129Q599.956 217.763 602.164 213.661Q604.373 209.559 604.373 204.353L604.373 204.353Q604.373 198.990 602.164 194.888Q599.956 190.786 596.091 188.499Q592.226 186.211 587.177 186.211Q582.129 186.211 578.264 188.499Q574.399 190.786 572.190 194.888Q569.982 198.990 569.982 204.353L569.982 204.353Q569.982 209.559 572.112 213.661Q574.241 217.763 578.185 220.129Q582.129 222.496 587.020 222.496ZM678.993 244.424L678.993 244.424Q666.530 244.424 656.828 239.297Q647.125 234.170 641.604 225.020Q636.082 215.870 636.082 204.353Q636.082 192.837 641.525 183.766Q646.968 174.695 656.275 169.489Q665.583 164.283 677.257 164.283L677.257 164.283Q688.616 164.283 697.292 169.173Q705.969 174.064 710.939 182.741Q715.908 191.417 715.908 202.618L715.908 202.618Q715.908 204.669 715.671 206.956Q715.435 209.244 714.804 212.241L714.804 212.241L659.904 212.399Q660.377 214.134 661.324 215.712L661.324 215.712Q663.690 220.602 668.186 223.205Q672.682 225.808 678.835 225.808L678.835 225.808Q684.514 225.808 689.089 223.836Q693.664 221.865 697.135 217.921L697.135 217.921L710.386 231.172Q704.707 237.798 696.661 241.111Q688.616 244.424 678.993 244.424ZM659.904 195.834L659.904 195.834L693.349 195.677Q692.875 193.468 692.086 191.575L692.086 191.575Q690.193 187.316 686.486 185.028Q682.779 182.741 677.415 182.741L677.415 182.741Q671.736 182.741 667.555 185.344Q663.375 187.947 661.166 192.679L661.166 192.679Q660.377 194.099 659.904 195.834ZM765.444 244.424L765.444 244.424Q752.981 244.424 743.279 239.297Q733.577 234.170 728.055 225.020Q722.534 215.870 722.534 204.353Q722.534 192.837 727.976 183.766Q733.419 174.695 742.727 169.489Q752.034 164.283 763.709 164.283L763.709 164.283Q775.067 164.283 783.744 169.173Q792.421 174.064 797.390 182.741Q802.359 191.417 802.359 202.618L802.359 202.618Q802.359 204.669 802.123 206.956Q801.886 209.244 801.255 212.241L801.255 212.241L746.355 212.399Q746.828 214.134 747.775 215.712L747.775 215.712Q750.141 220.602 754.638 223.205Q759.134 225.808 765.286 225.808L765.286 225.808Q770.965 225.808 775.540 223.836Q780.115 221.865 783.586 217.921L783.586 217.921L796.838 231.172Q791.158 237.798 783.113 241.111Q775.067 244.424 765.444 244.424ZM746.355 195.834L746.355 195.834L779.800 195.677Q779.327 193.468 778.538 191.575L778.538 191.575Q776.645 187.316 772.937 185.028Q769.230 182.741 763.866 182.741L763.866 182.741Q758.187 182.741 754.006 185.344Q749.826 187.947 747.617 192.679L747.617 192.679Q746.828 194.099 746.355 195.834ZM851.107 244.424L851.107 244.424Q839.275 244.424 829.651 239.218Q820.028 234.012 814.507 224.862Q808.985 215.712 808.985 204.353L808.985 204.353Q808.985 192.837 814.586 183.766Q820.186 174.695 829.809 169.489Q839.432 164.283 851.422 164.283L851.422 164.283Q860.414 164.283 867.908 167.359Q875.401 170.435 881.238 176.588L881.238 176.588L865.778 192.048Q863.096 189.051 859.547 187.631Q855.997 186.211 851.422 186.211L851.422 186.211Q846.216 186.211 842.193 188.499Q838.170 190.786 835.883 194.809Q833.595 198.832 833.595 204.196L833.595 204.196Q833.595 209.559 835.883 213.661Q838.170 217.763 842.272 220.129Q846.374 222.496 851.422 222.496L851.422 222.496Q856.155 222.496 859.862 220.839Q863.569 219.183 866.251 216.185L866.251 216.185L881.554 231.646Q875.559 237.956 867.987 241.190Q860.414 244.424 851.107 244.424ZM967.059 242.689L942.922 242.689L942.922 198.990Q942.922 192.995 939.214 189.287Q935.507 185.580 929.828 185.580L929.828 185.580Q925.884 185.580 922.886 187.237Q919.889 188.893 918.154 191.969Q916.418 195.046 916.418 198.990L916.418 198.990L916.418 242.689L892.281 242.689L892.281 128.156L916.418 128.156L916.418 171.697Q918.627 169.647 921.467 168.069L921.467 168.069Q928.250 164.441 937.085 164.441L937.085 164.441Q946.077 164.441 952.860 168.148Q959.644 171.855 963.351 178.402Q967.059 184.949 967.059 193.626L967.059 193.626L967.059 242.689Z" fill="#212540"/>
<path transform="translate(-42.238, 25.987) scale(0.8647293978035985)" d="M106.667 158C106.667 132.816 127.082 112.4 152.266 112.4H153.466C177.988 112.4 197.867 132.279 197.867 156.8C197.867 181.322 177.988 201.2 153.466 201.2H106.667V158Z" fill="#212540"/>
<path transform="translate(-42.238, 25.987) scale(0.8647293978035985)" d="M106.667 210.8H185.866C199.121 210.8 209.867 221.545 209.867 234.8V258.8C209.867 272.055 199.121 282.8 185.867 282.8H130.667C117.412 282.8 106.667 272.055 106.667 258.8V210.8Z" fill="#212540"/>
<circle transform="translate(-42.238, 25.987) scale(0.8647293978035985)" cx="238.066" cy="122.6" r="33" fill="#958AF0"/>
</svg>
